HIERARCHY
ROOT mixamorig:Hips
{
	OFFSET 0.000000 201.639420 0.000000
	CHANNELS 6 Xposition Yposition Zposition Xrotation Yrotation Zrotation
	JOINT mixamorig:Spine
	{
		OFFSET 0.006200 19.524994 -2.481800
		CHANNELS 3 Xrotation Yrotation Zrotation
		JOINT mixamorig:Spine1
		{
			OFFSET -0.000900 22.835007 -2.825400
			CHANNELS 3 Xrotation Yrotation Zrotation
			JOINT mixamorig:Spine2
			{
				OFFSET -0.020600 26.552490 -3.193300
				CHANNELS 3 Xrotation Yrotation Zrotation
				JOINT mixamorig:Neck
				{
					OFFSET -0.060000 30.701813 1.352200
					CHANNELS 3 Xrotation Yrotation Zrotation
					JOINT mixamorig:Head
					{
						OFFSET -0.087200 22.547607 3.670900
						CHANNELS 3 Xrotation Yrotation Zrotation
						JOINT mixamorig:HeadTop_End
						{
							OFFSET -0.830600 40.355194 7.893500
							CHANNELS 3 Xrotation Yrotation Zrotation
							End Site
							{
								OFFSET 0.000000 30.592346 0.000000
							}
						}
						JOINT mixamorig:RightEye
						{
							OFFSET -6.302100 18.118591 16.197100
							CHANNELS 3 Xrotation Yrotation Zrotation
							End Site
							{
								OFFSET 0.000000 30.592346 0.000000
							}
						}
						JOINT mixamorig:LeftEye
						{
							OFFSET 6.741500 18.382690 16.401899
							CHANNELS 3 Xrotation Yrotation Zrotation
							End Site
							{
								OFFSET 0.000000 30.592346 0.000000
							}
						}
					}
				}
				JOINT mixamorig:LeftShoulder
				{
					OFFSET 11.924900 18.230499 1.425400
					CHANNELS 3 Xrotation Yrotation Zrotation
					JOINT mixamorig:LeftArm
					{
						OFFSET 25.435989 -0.697632 -5.229300
						CHANNELS 3 Xrotation Yrotation Zrotation
						JOINT mixamorig:LeftForeArm
						{
							OFFSET 54.684776 0.000000 0.000000
							CHANNELS 3 Xrotation Yrotation Zrotation
							JOINT mixamorig:LeftHand
							{
								OFFSET 55.098175 0.000000 0.000000
								CHANNELS 3 Xrotation Yrotation Zrotation
								JOINT mixamorig:LeftHandMiddle1
								{
									OFFSET 23.369751 0.000000 0.000000
									CHANNELS 3 Xrotation Yrotation Zrotation
									JOINT mixamorig:LeftHandMiddle2
									{
										OFFSET 6.378677 0.000000 0.000000
										CHANNELS 3 Xrotation Yrotation Zrotation
										JOINT mixamorig:LeftHandMiddle3
										{
											OFFSET 6.148331 0.000000 0.000000
											CHANNELS 3 Xrotation Yrotation Zrotation
											JOINT mixamorig:LeftHandMiddle4
											{
												OFFSET 6.582504 0.000000 0.000000
												CHANNELS 3 Xrotation Yrotation Zrotation
												End Site
												{
													OFFSET -1.168900 6.395691 1.028606
												}
											}
										}
									}
								}
								JOINT mixamorig:LeftHandThumb1
								{
									OFFSET 7.235672 -3.848206 5.434273
									CHANNELS 3 Xrotation Yrotation Zrotation
									JOINT mixamorig:LeftHandThumb2
									{
										OFFSET 6.568451 -3.792297 3.792300
										CHANNELS 3 Xrotation Yrotation Zrotation
										JOINT mixamorig:LeftHandThumb3
										{
											OFFSET 6.063080 -3.500519 3.500518
											CHANNELS 3 Xrotation Yrotation Zrotation
											JOINT mixamorig:LeftHandThumb4
											{
												OFFSET 4.793182 -2.767334 2.767349
												CHANNELS 3 Xrotation Yrotation Zrotation
												End Site
												{
													OFFSET 0.101639 6.054260 1.275483
												}
											}
										}
									}
								}
								JOINT mixamorig:LeftHandIndex1
								{
									OFFSET 23.101074 -0.309540 4.992809
									CHANNELS 3 Xrotation Yrotation Zrotation
									JOINT mixamorig:LeftHandIndex2
									{
										OFFSET 6.226883 0.000000 0.000000
										CHANNELS 3 Xrotation Yrotation Zrotation
										JOINT mixamorig:LeftHandIndex3
										{
											OFFSET 6.094330 0.000000 0.000000
											CHANNELS 3 Xrotation Yrotation Zrotation
											JOINT mixamorig:LeftHandIndex4
											{
												OFFSET 5.482605 0.000000 0.000000
												CHANNELS 3 Xrotation Yrotation Zrotation
												End Site
												{
													OFFSET -1.427902 5.233032 0.797164
												}
											}
										}
									}
								}
								JOINT mixamorig:LeftHandRing1
								{
									OFFSET 22.299240 0.021149 -3.964172
									CHANNELS 3 Xrotation Yrotation Zrotation
									JOINT mixamorig:LeftHandRing2
									{
										OFFSET 6.321869 0.000000 0.000000
										CHANNELS 3 Xrotation Yrotation Zrotation
										JOINT mixamorig:LeftHandRing3
										{
											OFFSET 5.899796 0.000000 0.000000
											CHANNELS 3 Xrotation Yrotation Zrotation
											JOINT mixamorig:LeftHandRing4
											{
												OFFSET 6.517899 0.000000 0.000000
												CHANNELS 3 Xrotation Yrotation Zrotation
												End Site
												{
													OFFSET -1.637299 6.232208 0.980890
												}
											}
										}
									}
								}
								JOINT mixamorig:LeftHandPinky1
								{
									OFFSET 20.463791 -0.302338 -8.562233
									CHANNELS 3 Xrotation Yrotation Zrotation
									JOINT mixamorig:LeftHandPinky2
									{
										OFFSET 6.908646 0.000000 0.000000
										CHANNELS 3 Xrotation Yrotation Zrotation
										JOINT mixamorig:LeftHandPinky3
										{
											OFFSET 4.622849 0.000000 0.000000
											CHANNELS 3 Xrotation Yrotation Zrotation
											JOINT mixamorig:LeftHandPinky4
											{
												OFFSET 5.216080 0.000000 0.000000
												CHANNELS 3 Xrotation Yrotation Zrotation
												End Site
												{
													OFFSET -0.606308 5.116241 0.814926
												}
											}
										}
									}
								}
							}
						}
					}
				}
				JOINT mixamorig:RightShoulder
				{
					OFFSET -12.001300 18.284088 1.348900
					CHANNELS 3 Xrotation Yrotation Zrotation
					JOINT mixamorig:RightArm
					{
						OFFSET -25.308500 -0.751312 -5.164599
						CHANNELS 3 Xrotation Yrotation Zrotation
						JOINT mixamorig:RightForeArm
						{
							OFFSET -54.684429 0.000000 0.000000
							CHANNELS 3 Xrotation Yrotation Zrotation
							JOINT mixamorig:RightHand
							{
								OFFSET -55.150291 0.000000 0.000000
								CHANNELS 3 Xrotation Yrotation Zrotation
								JOINT mixamorig:RightHandMiddle1
								{
									OFFSET -23.317566 0.000000 0.000000
									CHANNELS 3 Xrotation Yrotation Zrotation
									JOINT mixamorig:RightHandMiddle2
									{
										OFFSET -6.378403 0.000000 0.000000
										CHANNELS 3 Xrotation Yrotation Zrotation
										JOINT mixamorig:RightHandMiddle3
										{
											OFFSET -6.148193 0.000000 0.000000
											CHANNELS 3 Xrotation Yrotation Zrotation
											JOINT mixamorig:RightHandMiddle4
											{
												OFFSET -6.583389 0.000000 0.000000
												CHANNELS 3 Xrotation Yrotation Zrotation
												End Site
												{
													OFFSET 1.171692 6.395905 1.029786
												}
											}
										}
									}
								}
								JOINT mixamorig:RightHandThumb1
								{
									OFFSET -7.190521 -3.860474 5.435846
									CHANNELS 3 Xrotation Yrotation Zrotation
									JOINT mixamorig:RightHandThumb2
									{
										OFFSET -6.567429 -3.791718 3.791708
										CHANNELS 3 Xrotation Yrotation Zrotation
										JOINT mixamorig:RightHandThumb3
										{
											OFFSET -6.062469 -3.500153 3.500166
											CHANNELS 3 Xrotation Yrotation Zrotation
											JOINT mixamorig:RightHandThumb4
											{
												OFFSET -4.792618 -2.767029 2.767022
												CHANNELS 3 Xrotation Yrotation Zrotation
												End Site
												{
													OFFSET -0.100327 6.053253 1.276754
												}
											}
										}
									}
								}
								JOINT mixamorig:RightHandIndex1
								{
									OFFSET -23.048981 -0.310791 4.992554
									CHANNELS 3 Xrotation Yrotation Zrotation
									JOINT mixamorig:RightHandIndex2
									{
										OFFSET -6.227539 0.000000 0.000000
										CHANNELS 3 Xrotation Yrotation Zrotation
										JOINT mixamorig:RightHandIndex3
										{
											OFFSET -6.095047 0.000000 0.000000
											CHANNELS 3 Xrotation Yrotation Zrotation
											JOINT mixamorig:RightHandIndex4
											{
												OFFSET -5.484772 0.000000 0.000000
												CHANNELS 3 Xrotation Yrotation Zrotation
												End Site
												{
													OFFSET 1.420593 5.237305 0.797056
												}
											}
										}
									}
								}
								JOINT mixamorig:RightHandRing1
								{
									OFFSET -22.246323 0.020569 -3.963762
									CHANNELS 3 Xrotation Yrotation Zrotation
									JOINT mixamorig:RightHandRing2
									{
										OFFSET -6.322128 0.000000 0.000000
										CHANNELS 3 Xrotation Yrotation Zrotation
										JOINT mixamorig:RightHandRing3
										{
											OFFSET -5.900024 0.000000 0.000000
											CHANNELS 3 Xrotation Yrotation Zrotation
											JOINT mixamorig:RightHandRing4
											{
												OFFSET -6.518356 0.000000 0.000000
												CHANNELS 3 Xrotation Yrotation Zrotation
												End Site
												{
													OFFSET 1.636398 6.232697 0.982186
												}
											}
										}
									}
								}
								JOINT mixamorig:RightHandPinky1
								{
									OFFSET -20.411011 -0.303314 -8.561701
									CHANNELS 3 Xrotation Yrotation Zrotation
									JOINT mixamorig:RightHandPinky2
									{
										OFFSET -6.907349 0.000000 0.000000
										CHANNELS 3 Xrotation Yrotation Zrotation
										JOINT mixamorig:RightHandPinky3
										{
											OFFSET -4.623840 0.000000 0.000000
											CHANNELS 3 Xrotation Yrotation Zrotation
											JOINT mixamorig:RightHandPinky4
											{
												OFFSET -5.218353 0.000000 0.000000
												CHANNELS 3 Xrotation Yrotation Zrotation
												End Site
												{
													OFFSET 0.602097 5.118835 0.816273
												}
											}
										}
									}
								}
							}
						}
					}
				}
			}
		}
	}
	JOINT mixamorig:LeftUpLeg
	{
		OFFSET 18.168400 -13.561905 -0.039000
		CHANNELS 3 Xrotation Yrotation Zrotation
		JOINT mixamorig:LeftLeg
		{
			OFFSET 0.577358 -80.825211 -3.695000
			CHANNELS 3 Xrotation Yrotation Zrotation
			JOINT mixamorig:LeftFoot
			{
				OFFSET -0.577356 -83.370262 -6.520700
				CHANNELS 3 Xrotation Yrotation Zrotation
				JOINT mixamorig:LeftToeBase
				{
					OFFSET 0.750401 -20.798306 25.135401
					CHANNELS 3 Xrotation Yrotation Zrotation
					JOINT mixamorig:LeftToe_End
					{
						OFFSET -0.000500 0.001200 19.917799
						CHANNELS 3 Xrotation Yrotation Zrotation
						End Site
						{
							OFFSET 0.000000 19.917805 0.000000
						}
					}
				}
			}
		}
	}
	JOINT mixamorig:RightUpLeg
	{
		OFFSET -18.162500 -13.585098 -0.041000
		CHANNELS 3 Xrotation Yrotation Zrotation
		JOINT mixamorig:RightLeg
		{
			OFFSET -0.595024 -80.945297 -3.631900
			CHANNELS 3 Xrotation Yrotation Zrotation
			JOINT mixamorig:RightFoot
			{
				OFFSET 0.595024 -83.218193 -6.561200
				CHANNELS 3 Xrotation Yrotation Zrotation
				JOINT mixamorig:RightToeBase
				{
					OFFSET -0.753601 -20.807106 25.115000
					CHANNELS 3 Xrotation Yrotation Zrotation
					JOINT mixamorig:RightToe_End
					{
						OFFSET 0.000299 0.001700 19.918200
						CHANNELS 3 Xrotation Yrotation Zrotation
						End Site
						{
							OFFSET 0.000000 19.918203 0.000000
						}
					}
				}
			}
		}
	}
}
MOTION
Frames: 4
Frame Time: 0.033333
-0.109068 254.119537 0.241732 -1.011815 1.191753 0.542202 -2.805585 -0.071667 -0.231835 -5.611631 -0.102272 -0.620857 -5.611634 -0.102272 -0.620857 -27.780338 0.884577 -2.478864 -5.939964 -1.809258 2.604353 0.000000 0.000000 0.000000 0.000000 0.000000 0.000000 0.000000 0.000000 0.000000 7.248267 6.365623 32.385158 -52.895324 -36.819890 5.857804 -23.466841 -23.506870 1.478694 -3.826441 -2.003343 0.833540 -7.057146 -4.106611 -72.543951 -5.071185 -4.491935 -69.918447 0.000003 0.000002 0.000005 -0.000000 0.000000 0.000003 -23.505080 8.724711 4.055228 -11.818411 8.158929 13.633695 0.000010 0.000005 -0.000003 0.000000 -0.000002 -0.000001 -0.793919 -9.944898 -73.989855 -8.742894 -2.825312 -82.562309 -0.000000 0.000004 -0.000008 -0.000000 -0.000000 -0.000001 -10.868857 6.242570 -70.785588 -0.409506 -6.819504 -77.462432 -0.000002 0.000002 -0.000001 -0.000000 0.000003 0.000001 -15.057972 6.364134 -69.029170 0.828528 -8.182907 -68.648667 0.000003 -0.000008 0.000001 0.000003 0.000001 0.000002 2.277490 -6.651284 -36.122593 -64.303895 35.763977 7.685036 -24.527658 16.756978 0.686876 10.843950 10.093239 2.135354 -13.105764 1.845229 86.654979 -5.617185 1.089158 83.764586 0.000002 -0.000002 -0.000007 0.000002 -0.000000 -0.000000 -17.327379 6.468803 -26.575911 3.045391 -20.333169 1.155696 -0.000003 -0.000001 0.000001 0.000001 0.000002 0.000001 -8.188807 4.701086 83.339858 -5.502052 0.854573 81.248884 -0.000004 -0.000004 -0.000000 -0.000000 0.000000 0.000000 -13.657985 -7.090695 77.657707 -0.194341 7.087333 77.421273 -0.000008 -0.000015 -0.000001 0.000002 0.000000 0.000000 -17.941993 -11.667249 76.734860 1.092359 11.886543 73.232803 0.000005 0.000012 -0.000003 -0.000003 0.000001 -0.000000 -25.445772 9.065305 2.441335 43.892069 14.406197 1.462272 33.375139 1.633797 6.589381 -0.000489 -0.007606 -0.009912 0.000004 0.000001 0.000001 -8.540003 -7.991353 -3.015155 26.809206 -20.226289 2.059028 44.805341 0.019790 0.100240 0.000001 0.000000 0.000003 0.000001 0.000000 0.000000 
0.464497 253.580795 0.019125 -1.107734 0.700843 1.154854 -2.658899 0.025328 -0.107613 -5.317634 0.080669 -0.329768 -5.317630 0.080668 -0.329768 -28.412901 1.220683 -2.922903 -6.091290 -1.435686 2.510420 -0.000002 -0.000000 -0.000000 -0.000002 -0.000000 -0.000000 -0.000002 -0.000000 -0.000000 7.116129 4.987568 32.746072 -52.204884 -33.185079 5.825640 -23.408795 -24.818355 1.626489 -4.544109 -2.515942 0.369102 -7.057119 -4.106609 -72.543972 -5.071179 -4.491952 -69.918427 0.000004 0.000002 0.000000 -0.000002 0.000001 -0.000000 -23.505078 8.724718 4.055219 -11.818407 8.158952 13.633694 0.000007 0.000008 -0.000002 0.000004 -0.000001 -0.000001 -0.793935 -9.944901 -73.989889 -8.742875 -2.825304 -82.562295 0.000001 0.000004 -0.000004 -0.000000 -0.000000 -0.000001 -10.868869 6.242566 -70.785635 -0.409499 -6.819478 -77.462466 -0.000002 0.000002 -0.000001 -0.000001 0.000000 0.000001 -15.057977 6.364122 -69.029184 0.828535 -8.182894 -68.648667 0.000001 -0.000011 -0.000005 -0.000001 -0.000001 -0.000000 2.634866 -7.501547 -38.301184 -64.962448 35.321985 8.117086 -26.392249 17.205289 -0.422867 11.607666 8.918871 3.133601 -13.105729 1.845241 86.654965 -5.617168 1.089180 83.764573 0.000003 -0.000002 -0.000007 0.000000 -0.000000 -0.000001 -17.327355 6.468824 -26.575926 3.045382 -20.333174 1.155696 -0.000003 0.000004 -0.000001 -0.000001 -0.000001 -0.000000 -8.188794 4.701087 83.339851 -5.502055 0.854571 81.248877 -0.000007 -0.000003 0.000001 0.000001 0.000000 -0.000003 -13.657999 -7.090677 77.657687 -0.194323 7.087310 77.421287 -0.000004 -0.000012 -0.000001 -0.000000 -0.000000 0.000002 -17.941978 -11.667237 76.734839 1.092363 11.886548 73.232803 0.000004 0.000012 -0.000006 0.000000 0.000000 -0.000001 -25.736139 9.079306 2.507712 44.691908 15.752177 1.687270 34.621659 1.320950 4.691890 -0.101075 -0.007593 -0.004968 0.000002 0.000000 0.000000 -7.498863 -9.952037 -3.175921 25.637926 -18.368438 2.059187 44.999786 0.358211 -0.280413 0.000002 0.000001 -0.000001 0.000003 0.000000 -0.000001 
1.099755 253.381485 -0.608489 -0.987258 0.505656 1.284239 -2.490031 0.084246 0.087172 -4.979917 0.191166 0.053789 -4.979919 0.191166 0.053788 -29.491596 1.432007 -3.441380 -6.133818 -1.129283 2.541814 -0.000001 -0.000000 -0.000000 -0.000001 -0.000000 -0.000000 -0.000001 -0.000000 -0.000000 6.865083 3.558416 33.141181 -52.111758 -29.149564 5.327297 -23.872047 -27.536008 1.780788 -4.411297 -2.924943 -0.516460 -7.057139 -4.106612 -72.543979 -5.071175 -4.491941 -69.918447 0.000003 0.000002 0.000007 -0.000002 -0.000001 -0.000001 -23.505077 8.724698 4.055229 -11.818391 8.158943 13.633687 0.000006 0.000005 -0.000003 0.000001 -0.000001 0.000000 -0.793919 -9.944905 -73.989875 -8.742893 -2.825319 -82.562302 -0.000000 0.000003 -0.000005 0.000000 0.000001 -0.000002 -10.868854 6.242564 -70.785622 -0.409497 -6.819500 -77.462446 0.000001 -0.000000 -0.000000 -0.000002 0.000001 -0.000002 -15.057956 6.364138 -69.029170 0.828515 -8.182930 -68.648667 0.000005 -0.000007 0.000007 0.000001 0.000001 0.000002 2.184435 -8.899260 -39.631937 -66.082415 35.722948 9.110276 -27.652475 17.437806 -1.549364 12.244599 8.071911 3.969582 -13.105758 1.845231 86.654979 -5.617168 1.089143 83.764573 0.000003 -0.000002 -0.000007 -0.000001 -0.000001 -0.000000 -17.327381 6.468817 -26.575897 3.045384 -20.333181 1.155685 -0.000003 0.000003 -0.000001 0.000000 0.000001 -0.000001 -8.188809 4.701083 83.339865 -5.502054 0.854590 81.248864 -0.000004 -0.000003 0.000002 0.000001 -0.000000 0.000000 -13.657983 -7.090679 77.657694 -0.194326 7.087298 77.421287 -0.000005 -0.000012 0.000000 -0.000002 -0.000002 0.000003 -17.941981 -11.667239 76.734839 1.092386 11.886536 73.232790 0.000008 0.000013 -0.000002 0.000003 -0.000002 -0.000000 -26.543589 8.675114 3.218649 45.430952 17.687950 1.927384 35.728354 0.965519 3.179217 -0.306630 -0.007532 -0.005003 0.000002 -0.000001 -0.000000 -7.022896 -13.146137 -2.689380 25.082994 -15.862614 1.743633 45.078463 0.861570 -0.587644 0.000001 -0.000000 0.000002 0.000001 -0.000001 0.000002 
1.773913 253.443314 -1.470783 -0.473754 1.272635 1.084042 -2.365023 -0.029976 0.308323 -4.730056 -0.037969 0.420460 -4.730061 -0.037968 0.420460 -30.928241 1.751134 -3.992663 -6.105647 -0.934130 2.715511 -0.000001 0.000000 0.000000 -0.000001 0.000000 0.000000 -0.000001 0.000000 0.000000 6.482619 2.471618 33.518976 -51.979068 -25.329051 4.845462 -23.940008 -30.812961 2.463192 -4.955027 -3.249849 -1.697721 -7.057158 -4.106616 -72.543965 -5.071180 -4.491943 -69.918434 0.000003 -0.000000 -0.000001 -0.000003 0.000001 0.000004 -23.505097 8.724716 4.055218 -11.818420 8.158921 13.633700 0.000004 0.000003 -0.000006 0.000002 0.000001 0.000000 -0.793933 -9.944883 -73.989882 -8.742885 -2.825313 -82.562309 0.000001 0.000004 -0.000007 -0.000000 0.000000 -0.000001 -10.868854 6.242573 -70.785615 -0.409517 -6.819502 -77.462446 -0.000000 0.000000 -0.000001 -0.000001 -0.000001 0.000001 -15.057960 6.364140 -69.029184 0.828499 -8.182925 -68.648674 0.000005 -0.000011 0.000003 -0.000001 -0.000003 -0.000004 0.863089 -10.868194 -40.400805 -67.705179 36.780456 10.723185 -28.482261 17.083346 -2.306033 12.723864 7.773964 4.470914 -13.105742 1.845240 86.654965 -5.617167 1.089150 83.764573 0.000007 -0.000002 -0.000006 0.000000 -0.000000 -0.000000 -17.327357 6.468803 -26.575906 3.045392 -20.333161 1.155685 -0.000004 -0.000001 -0.000002 0.000001 0.000001 0.000001 -8.188793 4.701088 83.339830 -5.502056 0.854590 81.248877 -0.000006 -0.000003 -0.000006 0.000001 -0.000001 -0.000001 -13.658004 -7.090682 77.657687 -0.194329 7.087319 77.421294 -0.000004 -0.000013 0.000003 -0.000001 -0.000001 0.000005 -17.941992 -11.667228 76.734846 1.092354 11.886555 73.232803 0.000005 0.000013 -0.000005 -0.000003 0.000002 0.000001 -28.345686 7.954611 4.436934 46.552606 19.417692 1.979820 36.753695 0.674055 2.390081 -0.477229 -0.007486 -0.003474 0.000001 0.000001 0.000001 -6.587071 -17.424072 -1.334398 24.138111 -13.754635 0.888717 44.954413 1.567975 -0.546429 -0.000002 -0.000002 0.000002 -0.000002 0.000000 0.000003 
